<svg xmlns="http://www.w3.org/2000/svg" width="1980" height="1091" viewBox="0 0 1980 1091">
    <defs>
        <style>
            .cls-1{fill:#fff;stroke:#707070}.cls-2{clip-path:url(#clip-path)}.cls-3{fill:#57b894}.cls-4{fill:#f2f2f2}.cls-5,.cls-6{fill:#6c63ff}.cls-6{opacity:.3}.cls-7{fill:#e6e6e6}.cls-8{fill:#3f3d56}.cls-9{fill:#fbbebe}.cls-10{opacity:.1}.cls-11{fill:#2f2e41}
        </style>
        <clipPath id="clip-path">
            <path id="Rectangle_3097" d="M0 0h1980v1091H0z" class="cls-1" data-name="Rectangle 3097" transform="translate(-19856 -4030)"/>
        </clipPath>
    </defs>
    <g id="Groupe_de_masques_2" class="cls-2" data-name="Groupe de masques 2" transform="translate(19856 4030)">
        <g id="undraw_folder_39kl" transform="translate(-19505.373 -4030)">
            <path id="Tracé_318" d="M1337.8 680.328c-.208 16.28-.954 34.519-2.625 53.735l46.893-58.471.33.915a146.258 146.258 0 0 0-16.87-37.4l.371.86z" class="cls-3" data-name="Tracé 318" transform="translate(-186.028 -73.55)"/>
            <path id="Tracé_319" d="M1337.834 677.472l27.219-39.093c-7.825-11.789-17.2-20.918-27.9-26.486-.557-.29-1.116-.56-1.674-.828.414 4.408 2.684 30.29 2.355 66.407z" class="cls-3" data-name="Tracé 319" transform="translate(-186.028 -73.55)"/>
            <path id="Tracé_320" d="M1387.937 790.957q1.729-10.226 2.684-20.406l-70.719 55.54-.1-.49q-1.6 6.009-3.329 11.813l71.29-47.537z" class="cls-3" data-name="Tracé 320" transform="translate(-186.028 -73.55)"/>
            <path id="Tracé_321" d="M1327.969 788.692l63.29-58.657.248 1.015a229.933 229.933 0 0 0-8.807-53.55l-47.787 59.585q-2.482 27-6.944 51.607z" class="cls-3" data-name="Tracé 321" transform="translate(-186.028 -73.55)"/>
            <path id="Tracé_322" d="M1333.7 736.068l-84.659-84.13.367-1.028a192.006 192.006 0 0 0-17.138 34.694l96.341 91.37c2.295-14.282 3.934-28.074 5.089-40.906z" class="cls-3" data-name="Tracé 322" transform="translate(-186.028 -73.55)"/>
            <path id="Tracé_323" d="M1326.4 789.755q.971-5.232 1.823-10.4l-96.7-91.707.357-1.035q-2.4 6.4-4.5 13.213l.351-1.038z" class="cls-3" data-name="Tracé 323" transform="translate(-186.028 -73.55)"/>
            <path id="Tracé_324" d="M1320.407 823.27l70.126-55.078.2 1.052a274.571 274.571 0 0 0 .827-37l-64.146 59.45q-3.063 16.388-7.007 31.576z" class="cls-3" data-name="Tracé 324" transform="translate(-186.028 -73.55)"/>
            <path id="Tracé_325" d="M1220.665 786.02l79.293 91.923a330.223 330.223 0 0 0 13.931-37.045l-95.429-89.284a265.622 265.622 0 0 0 1.758 35.515z" class="cls-3" data-name="Tracé 325" transform="translate(-186.028 -73.55)"/>
            <path id="Tracé_326" d="M1334.125 611.063l.643-.333c-16.646-7.693-34.072-5.755-50.32 3.961l52.082 62.791c.348-39.076-2.365-66.033-2.405-66.419z" class="cls-3" data-name="Tracé 326" transform="translate(-186.028 -73.55)"/>
            <path id="Tracé_327" d="M1314.458 843.988a328.1 328.1 0 0 1-12.6 33.406l71.941-42.661.137 1.063a130.074 130.074 0 0 0 11.262-30.838q1.408-6.321 2.5-12.658l-72.14 48.1c-.358 1.2-.723 2.4-1.1 3.588z" class="cls-3" data-name="Tracé 327" transform="translate(-186.028 -73.55)"/>
            <path id="Tracé_328" d="M1336.5 680.394l-53.276-64.233.408-.982c-12.191 7.5-23.692 19.4-33.674 34.884l83.97 83.445c1.638-19.001 2.372-37.025 2.572-53.114z" class="cls-3" data-name="Tracé 328" transform="translate(-186.028 -73.55)"/>
            <path id="Tracé_329" d="M1314.572 838.686a445.624 445.624 0 0 0 11.392-46.6l-98.911-91.186q-2.809 9.242-5.032 19.18a159.675 159.675 0 0 0-3.492 28.862l95.974 89.794z" class="cls-3" data-name="Tracé 329" transform="translate(-186.028 -73.55)"/>
            <path id="Tracé_330" d="M1416.455 937.345c-10.544 12.406-22.751 25.978-36.3 39.712l73.41-15.125-.329.915a146.263 146.263 0 0 0 10.86-39.562l-.263.9z" class="cls-3" data-name="Tracé 330" transform="translate(-186.028 -73.55)"/>
            <path id="Tracé_331" d="M1459.61 884.222c-.244-.578-.5-1.143-.762-1.705-2.49 3.659-17.25 25.041-40.54 52.648l45.9-12.748c1.482-14.071.092-27.08-4.598-38.195z" class="cls-3" data-name="Tracé 331" transform="translate(-186.028 -73.55)"/>
            <path id="Tracé_332" d="M1309.939 1037.755q-5.061 3.611-10.1 6.975l85.227 8.857-.561.938q7.854-6.773 15.083-14l-89.889-2.326z" class="cls-3" data-name="Tracé 332" transform="translate(-186.028 -73.55)"/>
            <path id="Tracé_333" d="M1339.767 1014.532l86.157-4.809-.456.94a229.947 229.947 0 0 0 27.368-46.871l-74.809 15.408q-19.127 19.227-38.26 35.332z" class="cls-3" data-name="Tracé 333" transform="translate(-186.028 -73.55)"/>
            <path id="Tracé_334" d="M1311.888 1036.342l89.14 2.307-.513.941a274.544 274.544 0 0 0 24.239-27.973l-87.323 4.875q-12.818 10.667-25.543 19.85z" class="cls-3" data-name="Tracé 334" transform="translate(-186.028 -73.55)"/>
            <path id="Tracé_335" d="M1205.783 1086.532c.593-.675 1.193-1.36 1.811-2.076a228.5 228.5 0 0 0 51.789-18.127l-1.286-63.936q.935-2.506 1.8-5.047l1.369 68.063a330.2 330.2 0 0 0 34.358-19.646l-15.114-118.372q.92-.548 1.875-1.127l15.1 118.22.082.009a445.713 445.713 0 0 0 38.5-28.626l-15.744-116.427q.911-.751 1.823-1.517l15.737 116.43q4.085-3.41 8.036-6.845l-14.249-117.957q.906-.834 1.808-1.682l14.26 118.049c10.875-9.536 20.935-19.116 30.009-28.259L1366.2 858.866l.938-.557a168.892 168.892 0 0 0-9.86 3.554 168.263 168.263 0 0 0 15.759-24.319l-72.63 43.069a252.43 252.43 0 0 1-15.738 29.325 192.88 192.88 0 0 0-3.84 4.173l.184 1.445q-.845 1.257-1.7 2.5l-.245-1.922a225.09 225.09 0 0 0-2.152 2.531 237.775 237.775 0 0 0 22.174-38.806l-78.708-91.259c.989 8.477 2.311 16.992 3.871 25.423A144.423 144.423 0 0 0 1198 785.558l.619.7-14.248 47.066c4.834 15.547 9.763 33.123 14.113 51.915l26.156-69.132q.3 1.568.606 3.131L1199.16 888.2q6 26.448 9.358 51.228l32.717-58.61.758 2.388-33.071 59.244q2.149 16.537 3.093 32.2l40.635-60.588q.417 1.122.821 2.2l-41.064 61.228-.242-.437q.34 6.208.485 12.264l46.392-58.744q.463 1.143.859 2.108l-47.195 59.76c.021 1.252.047 2.509.055 3.751a328.065 328.065 0 0 1-1.653 35.664l4.507-5.125q-1.2 2.9-2.33 5.721l-2.563 2.914c-.2 1.765-.427 3.513-.661 5.252q-1.31 3.382-2.52 6.6.983-6.045 1.7-12.164l-103.07-62.454c29.687 64.662 82.024 124.776 85.372 128.59q3.376-7.29 6.092-14.912c.615-.094 1.23-.2 1.844-.3-.212.609-.42 1.224-.638 1.828-.321.053-.643.113-.964.163l.837.182q-1.933 5.339-4.127 10.433c2.062-2.081 5.151-5.3 8.893-9.46 23.674 4.6 87.187 13.679 139.842-8.218l-83.409-13.153a230.774 230.774 0 0 1-54.131 18.78zm51.843-107.581l1.86-2.115.06 3-1.859 2.115z" class="cls-3" data-name="Tracé 335" transform="translate(-186.028 -73.55)"/>
            <path id="Tracé_336" d="M1457.807 881.652l.708.154c-7.914-16.542-22.571-26.164-41.282-29.044l.063 81.58c25.187-29.876 40.292-52.366 40.511-52.69z" class="cls-3" data-name="Tracé 336" transform="translate(-186.028 -73.55)"/>
            <path id="Tracé_337" d="M1294.092 1048.5a328.069 328.069 0 0 1-31.008 17.7l82.618 13.028-.573.906a130.086 130.086 0 0 0 28.343-16.568q5.115-3.97 10-8.152l-86.243-8.963c-1.044.686-2.093 1.38-3.137 2.049z" class="cls-3" data-name="Tracé 337" transform="translate(-186.028 -73.55)"/>
            <path id="Tracé_338" d="M1379.56 975.83c13.381-13.588 25.439-27 35.859-39.267l-.064-83.452.941-.5c-14.175-2-30.619-.172-48.185 5.389z" class="cls-3" data-name="Tracé 338" transform="translate(-186.028 -73.55)"/>
            <path id="Tracé_339" d="M1197.324 785.01c-11.086-8.793-22.821-14.578-34.722-16.564-.619-.1-1.234-.187-1.848-.27 1.758 4.062 11.916 27.975 22.767 62.426z" class="cls-3" data-name="Tracé 339" transform="translate(-186.028 -73.55)"/>
            <path id="Tracé_340" d="M1197.7 887.606l-106.518-53.843.032-1.091a191.983 191.983 0 0 0-5.575 38.292l119.865 57.117c-2.23-14.29-4.936-27.916-7.804-40.475z" class="cls-3" data-name="Tracé 340" transform="translate(-186.028 -73.55)"/>
            <path id="Tracé_341" d="M1205.876 930.468l-120.307-57.328.02-1.095q-.3 6.829-.2 13.958l.012-1.1 121.953 56.011q-.691-5.271-1.478-10.446z" class="cls-3" data-name="Tracé 341" transform="translate(-186.028 -73.55)"/>
            <path id="Tracé_342" d="M1211.263 993.428l-118.353-55.415a265.606 265.606 0 0 0 12.649 33.232l.082-1.193 103.823 62.913a330.276 330.276 0 0 0 1.799-39.537z" class="cls-3" data-name="Tracé 342" transform="translate(-186.028 -73.55)"/>
            <path id="Tracé_343" d="M1159.468 768.59l.509-.516c-18.208-2.171-34.182 5.058-46.631 19.32l68.94 43.619c-11.749-37.27-22.661-62.066-22.818-62.423z" class="cls-3" data-name="Tracé 343" transform="translate(-186.028 -73.55)"/>
            <path id="Tracé_344" d="M1183.156 833.793l-70.522-44.62.084-1.06c-9.274 10.9-16.536 25.769-21.243 43.584l105.65 53.4c-4.313-18.572-9.19-35.939-13.969-51.304z" class="cls-3" data-name="Tracé 344" transform="translate(-186.028 -73.55)"/>
            <path id="Tracé_345" d="M1211.228 991.111a445.694 445.694 0 0 0-3.57-47.841L1085.4 887.121q.185 9.658 1.143 19.8a159.7 159.7 0 0 0 5.6 28.528l119.03 55.731z" class="cls-3" data-name="Tracé 345" transform="translate(-186.028 -73.55)"/>
            <path id="Tracé_346" d="M1111.606 707.679l-355.069-44.758c-16.093-133.866 8.22-264.556 49.731-394.522l355.071 44.758c-53.581 127.502-69.307 259.102-49.733 394.522z" class="cls-4" data-name="Tracé 346" transform="translate(-186.028 -73.55)"/>
            <path id="Rectangle_3098" d="M0 0h218.705v23.497H0z" class="cls-5" data-name="Rectangle 3098" transform="rotate(7.184 -1593.326 5456.42)"/>
            <path id="Rectangle_3099" d="M0 0h296.426v11.749H0z" class="cls-6" data-name="Rectangle 3099" transform="rotate(7.184 -2025.124 5082.427)"/>
            <path id="Rectangle_3100" d="M0 0h296.426v11.749H0z" class="cls-6" data-name="Rectangle 3100" transform="rotate(7.184 -2327.451 5063.455)"/>
            <path id="Rectangle_3101" d="M0 0h296.426v11.749H0z" class="cls-6" data-name="Rectangle 3101" transform="rotate(7.184 -2629.78 5044.474)"/>
            <path id="Rectangle_3102" d="M0 0h296.426v11.749H0z" class="cls-6" data-name="Rectangle 3102" transform="rotate(7.184 -2932.108 5025.494)"/>
            <path id="Rectangle_3103" d="M0 0h296.426v11.749H0z" class="cls-6" data-name="Rectangle 3103" transform="rotate(7.184 -3234.428 5006.505)"/>
            <path id="Rectangle_3104" d="M0 0h296.426v11.749H0z" class="cls-6" data-name="Rectangle 3104" transform="rotate(7.184 -3536.764 4987.533)"/>
            <path id="Rectangle_3105" d="M0 0h296.426v11.749H0z" class="cls-6" data-name="Rectangle 3105" transform="rotate(7.184 -3839.1 4968.553)"/>
            <path id="Tracé_347" d="M943.462 575.8L611.273 442.649c18.3-133.582 74.9-253.865 147.94-369.1L1091.4 206.7c-84.1 109.793-132.61 233.129-147.938 369.1z" class="cls-7" data-name="Tracé 347" transform="translate(-186.028 -73.55)"/>
            <path id="Rectangle_3106" d="M0 0h218.706v23.497H0z" class="cls-5" data-name="Rectangle 3106" transform="rotate(21.88 154.585 1607.798)"/>
            <path id="Rectangle_3107" d="M0 0h296.427v11.749H0z" class="cls-6" data-name="Rectangle 3107" transform="rotate(21.88 28.649 1466.99)"/>
            <path id="Rectangle_3108" d="M0 0h296.427v11.749H0z" class="cls-6" data-name="Rectangle 3108" transform="rotate(21.88 -69.726 1448.068)"/>
            <path id="Rectangle_3109" d="M0 0h296.427v11.749H0z" class="cls-6" data-name="Rectangle 3109" transform="rotate(21.88 -168.098 1429.145)"/>
            <path id="Rectangle_3110" d="M0 0h296.427v11.749H0z" class="cls-6" data-name="Rectangle 3110" transform="rotate(21.88 -266.47 1410.225)"/>
            <path id="Rectangle_3111" d="M0 0h296.427v11.749H0z" class="cls-6" data-name="Rectangle 3111" transform="rotate(21.88 -364.844 1391.306)"/>
            <path id="Rectangle_3112" d="M0 0h296.427v11.749H0z" class="cls-6" data-name="Rectangle 3112" transform="rotate(21.88 -463.219 1372.384)"/>
            <path id="Rectangle_3113" d="M0 0h296.427v11.749H0z" class="cls-6" data-name="Rectangle 3113" transform="rotate(21.88 -561.59 1353.461)"/>
            <path id="Tracé_348" d="M861.31 607.863H503.431c-32.709-130.8-24.931-263.506 0-397.645H861.31c-37.21 133.203-36.357 265.736 0 397.645z" class="cls-4" data-name="Tracé 348" transform="translate(-186.028 -73.55)"/>
            <path id="Rectangle_3114" d="M0 0h218.705v23.497H0z" class="cls-5" data-name="Rectangle 3114" transform="translate(372.53 177.337)"/>
            <path id="Rectangle_3115" d="M0 0h296.426v11.749H0z" class="cls-6" data-name="Rectangle 3115" transform="translate(329.152 234.273)"/>
            <path id="Rectangle_3116" d="M0 0h296.426v11.749H0z" class="cls-6" data-name="Rectangle 3116" transform="translate(329.152 272.229)"/>
            <path id="Rectangle_3117" d="M0 0h296.426v11.749H0z" class="cls-6" data-name="Rectangle 3117" transform="translate(329.152 310.187)"/>
            <path id="Rectangle_3118" d="M0 0h296.426v11.749H0z" class="cls-6" data-name="Rectangle 3118" transform="translate(329.152 348.144)"/>
            <path id="Rectangle_3119" d="M0 0h296.426v11.749H0z" class="cls-6" data-name="Rectangle 3119" transform="translate(329.152 386.1)"/>
            <path id="Rectangle_3120" d="M0 0h296.426v11.749H0z" class="cls-6" data-name="Rectangle 3120" transform="translate(329.152 424.057)"/>
            <path id="Rectangle_3121" d="M0 0h296.426v11.749H0z" class="cls-6" data-name="Rectangle 3121" transform="translate(329.152 462.015)"/>
            <path id="Tracé_349" d="M620.08 528.48l-123.294-95.852a14.074 14.074 0 0 0-12.2-7.059h-66.544a14.074 14.074 0 0 0-14.074 14.074v587.329a45.652 45.652 0 0 0 45.652 45.652h683.1a45.652 45.652 0 0 0 45.652-45.652v-457a41.494 41.494 0 0 0-41.494-41.494z" class="cls-8" data-name="Tracé 349" transform="translate(-186.028 -73.55)"/>
            <path id="Rectangle_3122" d="M0 0h123.905v43.367H0z" class="cls-5" data-name="Rectangle 3122" transform="translate(845.21 591.136)"/>
            <path id="Tracé_350" d="M186.029 1161.855s566.692-324.089 1251 0" class="cls-4" data-name="Tracé 350" transform="translate(-186.028 -73.55)"/>
            <path id="Tracé_351" d="M307.4 418.134s6.082 32.235 1.825 34.668a73.933 73.933 0 0 0-9.731 7.3l10.948 15.205 26.153 5.474 24.937-23.112v-23.114S354.23 423 355.447 415.7s-48.047 2.434-48.047 2.434z" class="cls-9" data-name="Tracé 351" transform="translate(-186.028 -73.55)"/>
            <path id="Tracé_352" d="M307.4 418.134s6.082 32.235 1.825 34.668a73.933 73.933 0 0 0-9.731 7.3l10.948 15.205 26.153 5.474 24.937-23.112v-23.114S354.23 423 355.447 415.7s-48.047 2.434-48.047 2.434z" class="cls-10" data-name="Tracé 352" transform="translate(-186.028 -73.55)"/>
            <path id="Tracé_353" d="M265.432 473.481l-3.649 1.825s-7.907 3.041-11.556 29.194-12.164 88.8-9.731 90.623 1.216 13.989 1.216 13.989l18.246-95.489z" class="cls-11" data-name="Tracé 353" transform="translate(-186.028 -73.55)"/>
            <path id="Tracé_354" d="M308.682 325.044c-.556 1.161-.751 2.517-1.273 3.7-2.37 5.371-9.118 4.169-13.986 6.2-4.122 1.721-7.2 6.445-7.521 11.551-.137 2.167.181 4.353-.014 6.515-.36 3.992-2.418 7.508-3.151 11.431-1.78 9.528 2.373 24.574 7.062 19.433 1.479-1.621 3.33-2.7 4.927-4.156 4.148-3.791 6.261-9.818 9.63-14.549a5.085 5.085 0 0 1 1.711-1.7c2.462-1.224 4.654 2.051 6.6 4.2a10.334 10.334 0 0 0 15.5-.3 9.1 9.1 0 0 1 2.184-2.232 4.658 4.658 0 0 1 3.035-.3 19.928 19.928 0 0 1 12.153 7.236c1.625 1.989 2.984 4.329 4.932 5.871s4.79 2.05 6.545.217c3.531 2.5 4.848 7.8 4.857 12.622s-.979 9.621-.738 14.438 2.133 10.017 5.972 11.785a17.162 17.162 0 0 1 6.355-11.118c2.615-1.946 5.793-2.91 8-5.45 4.427-5.085 3.024-13.544 3.194-20.8.21-8.948 3.311-17.5 3.859-26.432.274-4.462-.187-9.246-2.536-12.777a21 21 0 0 0-6.613-5.729L358.5 321.316a8.909 8.909 0 0 0-3.1-1.468c-3.073-.551-5.73 2.331-8.643 3.6a17.5 17.5 0 0 1-7.586.92c-8.1-.22-10.385 1.354-15.833-3.926a3.84 3.84 0 0 0-3.29-1.1c-3.254.52-9.585 1.982-11.366 5.702z" class="cls-11" data-name="Tracé 354" transform="translate(-186.028 -73.55)"/>
            <path id="Tracé_355" d="M134.143 986.243l12.772 27.977-24.937 8.515-12.772-6.69 3.042-29.8z" class="cls-9" data-name="Tracé 355"/>
            <path id="Tracé_356" d="M308.614 1083.512s-20.071-12.164-23.72-7.907-32.843 35.276-32.843 35.276-45.007 24.328-10.34 27.977 91.231-21.287 91.231-21.287 3.041-32.843.608-33.451-12.772 5.474-17.638 3.649a21.809 21.809 0 0 1-7.298-4.257z" class="cls-11" data-name="Tracé 356" transform="translate(-186.028 -73.55)"/>
            <path id="Tracé_357" d="M166.985 1016.045v24.935l-32.843-7.3 7.3-25.545z" class="cls-9" data-name="Tracé 357"/>
            <path id="Tracé_358" d="M319.562 1098.109s33.451-5.474 36.492 10.948 10.948 40.75 3.041 46.832-48.657 13.989-49.265 3.649 4.257-30.41 4.257-30.41 3.041-15.813 1.216-20.071 4.259-10.948 4.259-10.948z" class="cls-11" data-name="Tracé 358" transform="translate(-186.028 -73.55)"/>
            <path id="Tracé_359" d="M252.748 687.414s-27.458 174.1-4.955 259.253 38.317 135.63 38.317 135.63 38.925-10.948 38.925-18.246-15.205-115.559-18.854-125.9-9.731-13.989-4.257-22.5 14.6-63.254 14.6-63.254 20.071 90.623 21.287 93.056-12.773 141.712-12.773 141.712 40.148 29.135 42.575 7.3c.608-5.474 27.369-199.492 27.369-201.924s10.948-188.545-6.69-197.667-135.544-7.46-135.544-7.46z" class="cls-11" data-name="Tracé 359" transform="translate(-186.028 -73.55)"/>
            <circle id="Ellipse_105" cx="41.358" cy="41.358" r="41.358" class="cls-9" data-name="Ellipse 105" transform="translate(103.732 274.031)"/>
            <path id="Tracé_360" d="M322 471.047v-4.257l-12.164-20.071s-12.164 1.216-13.989 6.69-22.5 49.265-22.5 49.265l-21.9 196.451s60.213 14.6 69.336 4.257 43.787-235.376 43.787-235.376l4.865-27.369s-8.355-12.164-10.259-10.339-33.531 37.1-33.531 37.1l-.608 5.474z" class="cls-5" data-name="Tracé 360" transform="translate(-186.028 -73.55)"/>
            <path id="Tracé_361" d="M309.526 442.767s-11.252-2.737-14.9 3.953-3.649 9.123-7.3 11.556-24.937 13.381-26.153 17.638S233.8 614.585 233.8 614.585s-12.772 40.142-6.69 67.511 1.825 32.843 14.6 35.276 14.6 2.433 14.6-1.216 16.422-127.115 27.977-135.63 8.513-101.571 8.513-101.571 16.422-20.071 16.422-23.112 2.738-13.305.304-13.076z" class="cls-11" data-name="Tracé 361" transform="translate(-186.028 -73.55)"/>
            <path id="Tracé_362" d="M343.891 464.966c1.7.283 24.937-29.8 26.761-28.586s10.948 17.03 12.164 17.03 52.914 12.772 57.171 36.492-29.8 99.138-29.8 99.138-14.6 43.183-11.556 62.037a127.016 127.016 0 0 1-1.216 43.183c-1.216 4.866-5.474 10.339-4.257 12.772s-26.761-3.041-38.317 3.649-63.254 11.556-60.213 4.257 4.866-35.884 13.381-66.295 30.41-102.179 26.761-107.044 5.471-77.241 9.121-76.633z" class="cls-11" data-name="Tracé 362" transform="translate(-186.028 -73.55)"/>
            <path id="Tracé_363" d="M432.688 482.6l7.907 7.3s9.123 15.813 7.907 23.112S474.047 630.4 463.1 634.047s-37.1 21.9-40.142 26.761-10.34 13.381-15.205 15.813-9.731 6.69-12.772 4.257-9.731-52.306-4.866-54.13 9.731-7.3 14.6-7.3 7.907-4.866 7.907-9.123-3.649-29.8-3.649-29.8l-7.907-60.212z" class="cls-11" data-name="Tracé 363" transform="translate(-186.028 -73.55)"/>
            <path id="Tracé_364" d="M315.978 331.1c-.492.878-.664 1.9-1.126 2.8-2.1 4.06-8.063 3.152-12.366 4.688a10.3 10.3 0 0 0-6.65 8.732c-.121 1.639.16 3.291-.012 4.925-.318 3.018-2.138 5.676-2.786 8.641-1.574 7.2 2.1 18.577 6.245 14.69 1.307-1.226 2.944-2.038 4.356-3.142 3.668-2.866 5.536-7.422 8.515-11a4.245 4.245 0 0 1 1.513-1.282c2.177-.925 4.115 1.551 5.836 3.173a10.2 10.2 0 0 0 13.708-.224 7.541 7.541 0 0 1 1.931-1.687 4.763 4.763 0 0 1 2.684-.225 18.388 18.388 0 0 1 10.746 5.47 29.389 29.389 0 0 0 4.361 4.439c1.723 1.166 4.236 1.55 5.787.164 3.122 1.887 4.287 5.893 4.3 9.541s-.866 7.273-.653 10.915 1.886 7.573 5.28 8.909a12.711 12.711 0 0 1 5.619-8.4c2.312-1.471 5.122-2.2 7.077-4.12 3.915-3.844 2.674-10.239 2.825-15.723.185-6.765 2.927-13.232 3.412-19.981.242-3.373-.166-6.99-2.242-9.659a18.053 18.053 0 0 0-5.847-4.331l-18.459-10.125a8.527 8.527 0 0 0-2.737-1.11c-2.717-.417-5.066 1.762-7.642 2.722a17.936 17.936 0 0 1-6.707.7c-7.166-.166-9.183 1.024-14-2.968a3.766 3.766 0 0 0-2.909-.83c-2.886.377-8.484 1.482-10.059 4.298z" class="cls-11" data-name="Tracé 364" transform="translate(-186.028 -73.55)"/>
        </g>
    </g>
</svg>
