<?xml version="1.0" encoding="UTF-8"?>
<svg width="160px" height="100px" viewBox="0 0 160 100" version="1.1" xmlns="http://www.w3.org/2000/svg" xmlns:xlink="http://www.w3.org/1999/xlink">
    <!-- Generator: sketchtool 48.1 (47250) - http://www.bohemiancoding.com/sketch -->
    <title>D2BE9D3A-6681-4128-B5B0-107A099BDD9E</title>
    <desc>Created with sketchtool.</desc>
    <defs>
        <linearGradient x1="3.34867885%" y1="3.34867885%" x2="100%" y2="100%" id="linearGradient-1">
            <stop stop-color="#FC6E51" offset="0%"></stop>
            <stop stop-color="#DB391F" offset="97.7658642%"></stop>
        </linearGradient>
    </defs>
    <g id="Accueil" stroke="none" stroke-width="1" fill="none" fill-rule="evenodd" transform="translate(-910.000000, -495.000000)">
        <g id="Row-1" transform="translate(617.000000, 325.000000)">
            <g id="2-copy" transform="translate(290.000000, 170.000000)">
                <g id="Bouton_Mod_RH" transform="translate(3.000000, 0.000000)">
                    <rect id="Card" fill="url(#linearGradient-1)" x="0" y="0" width="160" height="100" rx="3"></rect>
                    <g id="Page-1" stroke-width="1" transform="translate(39.000000, 20.000000)" fill="#FEFEFE">
                        <g id="Group-3" transform="translate(13.658537, 29.325283)">
                            <path d="M23.4814495,30.566066 C22.038662,30.4121038 20.5919721,30.2884245 19.1539233,30.0985189 C15.9188014,29.6714434 12.7452822,28.9987075 9.79085714,27.5156887 C9.11239024,27.174934 8.46012544,26.7951226 7.89371429,26.2783302 C7.51908014,25.9364434 7.07475958,25.7318208 6.60061324,25.5685189 C4.70486411,24.9153113 2.81914983,24.2309717 0.916989547,23.5975755 C0.250229965,23.3756887 0.0381045296,23.0714434 0.210090592,22.3259717 C1.4254216,17.0578585 2.62988153,11.7863491 3.76214634,6.49927358 C4.24995122,4.22068868 5.53859233,3.00342453 7.7808223,2.59531132 C11.7719024,1.86880189 15.7451429,1.04125472 19.7267456,0.261537736 C19.9143415,0.224745283 20.1136446,0.0815377358 20.3979652,0.340216981 C19.4739233,0.965971698 18.5972683,1.60927358 17.671554,2.16880189 C17.0694634,2.53276415 16.9666063,2.9100283 17.1829129,3.58842453 C18.9760836,9.21427358 20.7296725,14.8531415 22.4969199,20.4877642 C22.5827735,20.7608774 22.6859094,21.0291792 22.9693937,21.3269151 C24.038662,16.8611604 25.1076516,12.3956887 26.1766411,7.92993396 C26.2505087,7.92965094 26.3238188,7.92936792 26.3974077,7.92880189 C27.4650035,12.3920094 28.5325993,16.855217 29.6027038,21.3305943 C29.9335749,21.2318208 29.9210314,20.981066 29.9781742,20.7993679 C31.8078606,14.9912547 33.6238885,9.17861321 35.4627735,3.37361321 C35.6330871,2.8364434 35.483122,2.5500283 35.0460488,2.26927358 C34.089115,1.65427358 33.1569895,0.999650943 32.215108,0.361443396 C32.2404739,0.295783019 32.2658397,0.229839623 32.2912056,0.163896226 C33.4702997,0.385216981 34.6513449,0.598330189 35.8284878,0.829839623 C38.9420767,1.44200943 42.0548293,2.05757547 45.1661882,2.68106604 C47.0934355,3.06710377 48.2959443,4.2000283 48.7335749,6.18370755 C49.8978955,11.4639906 51.0906481,16.7377642 52.2733659,22.0135189 C52.5557352,23.2732358 52.5579652,23.2738019 51.3649338,23.6875755 C50.4297422,24.0119151 49.4886969,24.3189906 48.5590801,24.6586132 C46.856223,25.2812547 45.1954564,25.9126698 43.6517631,26.9805 C41.2342021,28.6531415 38.3594983,29.2579528 35.5070941,29.7758774 C33.5884878,30.1239906 31.6578955,30.3951226 29.703331,30.4378585 C29.5012404,30.4423868 29.3005436,30.5216321 29.0992892,30.566066 L23.4814495,30.566066 Z" id="Fill-1"></path>
                        </g>
                        <path d="M41.3533101,0.000113207547 C42.0108711,0.144735849 42.6767944,0.258226415 43.3243206,0.439358491 C47.2861324,1.54822642 49.4372125,4.39907547 50.5619512,8.23143396 C51.0709408,9.96577358 51.1696167,11.7595472 51.3148432,13.5456792 C51.3460627,13.9294528 51.4285714,14.2580377 51.7154007,14.5362453 C52.2045993,15.0111509 52.3361672,15.627283 52.2597909,16.2833208 C52.1000697,17.6559623 51.6008362,18.896717 50.6759582,19.9153019 C50.2441812,20.3904906 49.9213937,20.9027547 49.6565854,21.4837925 C48.1583275,24.7685094 46.1491289,27.641717 43.1701742,29.7323774 C41.0124042,31.2468113 38.8763763,31.242566 36.7205575,29.7289811 C33.6253659,27.5556792 31.5902439,24.5426604 30.0719164,21.1192642 C29.9088502,20.7513396 29.7062021,20.4320943 29.424669,20.1462453 C28.5354704,19.2436981 28.0111498,18.1370943 27.728223,16.9042642 C27.5163763,15.9819057 27.6047387,15.1639811 28.2703833,14.3998302 C28.8203484,13.7684151 28.6252265,12.8944528 28.6876655,12.1226604 C28.9011847,9.48690566 29.4475261,6.95926415 30.8708014,4.69341509 C32.5114983,2.08143396 34.8794425,0.627849057 37.8678746,0.157754717 C38.0958885,0.121811321 38.318885,0.0533207547 38.5443902,0.000113207547 L41.3533101,0.000113207547 Z" id="Fill-4"></path>
                        <path d="M79.8976446,44.2056509 C78.0010592,44.8902736 76.0116516,45.286783 74.2809199,46.4590472 C72.2669826,47.8229151 69.9104669,48.2250849 67.5564599,48.5565 C67.0694913,48.6249906 67.0137422,48.2647075 66.9373659,47.9236698 C66.1540906,44.4244245 65.3716516,40.9251792 64.5878188,37.4265 C64.3862857,36.525934 64.2014774,35.6211226 63.9740209,34.7273491 C63.4037073,32.4875377 61.9932544,31.0554623 59.8103972,30.4455566 C58.8359024,30.1730094 57.8279582,30.0227264 56.8359024,29.8135755 C56.6388293,29.7722547 56.4152753,29.7960283 56.1875401,29.4878208 C57.3972962,29.1929151 58.5549268,28.9107453 59.8733937,28.5892358 C58.8283763,27.5638585 57.9745784,26.5515 57.3206411,25.381217 C56.7461463,24.3530094 56.2179233,23.3047075 55.5297003,22.3331038 C54.8590383,21.3866887 54.6098397,20.3338585 55.3772265,19.1748962 C55.7986899,18.5386698 55.5578537,17.6321604 55.6913728,16.8535755 C56.0138815,14.972066 56.6195958,13.2592358 57.9712334,11.8404623 C60.5315122,9.15234906 67.4722787,8.90414151 69.46977,14.4003679 C69.9414077,15.6980094 70.2343693,17.0296132 70.2407805,18.4192358 C70.2418955,18.6810283 70.2009199,18.9677264 70.3712334,19.1865 C71.3501882,20.4448019 70.802453,21.6139528 70.0657282,22.6648019 C69.6105366,23.3140472 69.1999443,23.9706509 68.8548571,24.6784811 C68.2499791,25.9183868 67.4703275,27.0428208 66.5225923,28.0260283 C65.9798746,28.5886698 66.2168084,28.6908396 66.7874007,28.8204623 C69.4753449,29.430934 72.1515819,30.0971604 74.847331,30.6694245 C76.4161115,31.0022547 77.2598746,31.8697075 77.5818258,33.4815 C78.2117909,36.6354623 78.9616167,39.7648019 79.6679582,42.9026321 C79.7195261,43.1315943 79.8198746,43.3489528 79.8976446,43.5716887 L79.8976446,44.2056509 Z" id="Fill-6"></path>
                        <path d="M0,43.5716321 C0.570592334,41.7869151 0.863275261,39.9342736 1.29198606,38.1150283 C1.67275261,36.4987075 2.05630662,34.8815377 2.37184669,33.2513491 C2.6466899,31.8325755 3.45393728,31.0375755 4.82090592,30.7285189 C7.56041812,30.1098396 10.2929617,29.4617264 13.0294077,28.8294623 C13.8756794,28.6341792 13.8793031,28.629934 13.3101045,27.9826698 C12.318885,26.8545566 11.4589547,25.6347453 10.835122,24.2558774 C10.595122,23.725217 10.2517073,23.2715377 9.92167247,22.7974811 C9.15456446,21.6942736 8.52181185,20.5276698 9.52167247,19.1887075 C9.7538676,18.8779528 9.63707317,18.4715377 9.66355401,18.1072925 C9.8143554,16.0214434 10.2196516,14.0080472 11.6086411,12.3738962 C13.551777,10.0879528 16.0836237,9.64899057 18.8515679,10.2223868 C21.4597909,10.7626698 22.9625087,12.5428585 23.7736585,15.0124811 C23.9952613,15.6877642 24.1167944,16.3890849 24.2288502,17.094934 C24.3785366,18.0351226 24.3119164,18.9908774 24.8563066,19.8968208 C25.2738676,20.591066 24.9533101,21.5074811 24.4869686,22.1400283 C23.5467596,23.4155943 22.9371429,24.879934 22.0769338,26.1954057 C21.5291986,27.0331415 20.8565854,27.7638962 20.0097561,28.5897453 C21.315122,28.9061604 22.4783275,29.1880472 23.6415331,29.469934 C23.6476655,29.5404057 23.6537979,29.6105943 23.6599303,29.681066 C22.7450871,29.8701226 21.8333101,30.0778585 20.9142857,30.2442736 C18.0847387,30.7568208 16.4105923,32.4167264 15.7867596,35.2661604 C14.862439,39.489934 13.8971429,43.7043679 12.9652962,47.9264434 C12.8515679,48.4418208 12.638885,48.6192736 12.1042509,48.5326698 C9.52418118,48.115217 6.97477352,47.6289906 4.84682927,45.9212547 C4.76627178,45.8564434 4.67400697,45.7972925 4.57756098,45.7641792 C3.0528223,45.2417264 1.5261324,44.7240849 0,44.2055943 L0,43.5716321 Z" id="Fill-8"></path>
                        <path d="M39.9593031,31.341 C40.864669,31.6800566 41.7942857,32.0094906 42.7066202,32.3825094 C42.9689199,32.4897736 42.8521254,32.7430755 42.7297561,32.9227925 C41.9032753,34.1377925 41.0703833,35.3485472 40.24223,36.5624151 C40.030662,36.8726038 39.8327526,36.8338302 39.6393031,36.5505283 C38.8105923,35.3369434 37.9821603,34.1233585 37.1565157,32.9075094 C37.0026481,32.6808113 36.9686411,32.4425094 37.2705226,32.3270377 C38.1443902,31.9933585 39.0263415,31.6811887 39.9593031,31.341" id="Fill-10"></path>
                    </g>
                </g>
            </g>
        </g>
    </g>
</svg>