<svg xmlns="http://www.w3.org/2000/svg" xmlns:xlink="http://www.w3.org/1999/xlink" width="160" height="100" viewBox="0 0 160 100">
    <defs>
        <linearGradient id="a" x1="3.764%" x2="97.257%" y1="3.764%" y2="97.257%">
            <stop offset="0%" stop-color="#AC92EC"/>
            <stop offset="100%" stop-color="#7455C3"/>
        </linearGradient>
        <path id="b" d="M0 9.155h63.994V62.65H0z"/>
    </defs>
    <g fill="none" fill-rule="evenodd">
        <rect width="160" height="100" fill="url(#a)" rx="3"/>
        <g transform="translate(48 18)">
            <path d="M0 0h64v64H0z"/>
            <mask id="c" fill="#fff">
                <use xlink:href="#b"/>
            </mask>
            <path fill="#FEFEFE" d="M59.66 50.373H4.336c-.916 0-.917-.001-.917-.926V14.538c0-.938.001-.94.974-.94H59.65c.915 0 .917.002.917.932V49.44c0 .932-.001.934-.909.934m4.335-40.619c.015-.487-.112-.594-.6-.594-20.933.014-41.867.012-62.8.012-.087 0-.176.014-.26-.003-.28-.055-.338.048-.334.326.019 1.358.009 2.715.009 4.073.389.01.778.027 1.168.03 1 .004 1 .001 1 .973v35.997c0 1.017.002 1.018 1.051 1.019h10.788c5.546 0 11.092.007 16.637-.01.592-.002.8.172.78.774a66.708 66.708 0 0 0-.002 3.683c.01.456-.14.679-.58.855-1.147.458-1.775 1.359-1.873 2.574-.12 1.482.952 2.862 2.366 3.13 1.573.297 3.097-.586 3.534-2.05.444-1.483-.251-3.047-1.688-3.63-.488-.197-.653-.437-.637-.946.036-1.141.011-2.284.012-3.426 0-.953 0-.954.965-.954h27.23c1.05 0 1.05-.002 1.05-1.019V14.7c0-.193.013-.388 0-.58-.028-.4.17-.53.547-.525.54.008 1.082-.016 1.623-.027 0-1.271-.026-2.544.014-3.814" mask="url(#c)"/>
            <path fill="#FEFEFE" d="M57.169 17c-2.127.033-4.255.026-6.382.004-.577-.006-.786.18-.785.751.013 9.822.014 19.644-.002 29.466-.001.614.234.785.828.779 2.06-.023 4.12-.008 6.181-.01.971 0 .98-.008.98-.94.002-4.845.002-9.69.002-14.537 0-4.889-.008-9.778.009-14.667.002-.598-.16-.856-.831-.846M48.205 25.005c-2.106.025-4.214.033-6.32-.004-.684-.013-.89.181-.885.838.031 3.558.015 7.117.015 10.675 0 3.558.014 7.117-.013 10.675-.004.626.212.82.857.81 2.13-.029 4.259-.021 6.388-.003.554.004.752-.182.75-.718-.012-7.18-.014-14.362.003-21.543.001-.58-.217-.737-.795-.73M39.201 30.005c-2.11.022-4.222.032-6.332-.005-.699-.011-.876.237-.869.874.03 2.707.013 5.415.013 8.122 0 2.75.012 5.5-.01 8.251-.005.57.205.759.784.753a319.53 319.53 0 0 1 6.4 0c.566.005.814-.166.813-.739-.011-5.5-.011-11.002 0-16.503.001-.559-.219-.76-.799-.753" mask="url(#c)"/>
            <path fill="#FEFEFE" d="M31.99 40.468c0-2.551-.013-5.103.009-7.654.004-.576-.144-.824-.79-.814-2.154.034-4.308.028-6.462.004-.558-.007-.748.19-.747.725.011 5.169.012 10.338 0 15.507-.001.57.224.768.8.762a275.69 275.69 0 0 1 6.394.002c.625.008.812-.217.806-.812-.025-2.573-.01-5.146-.01-7.72M22.237 38c-2.153.026-4.307.025-6.46 0-.6-.006-.78.209-.777.773.02 3.16.018 6.32.002 9.48-.003.527.162.752.734.747 2.175-.02 4.352-.02 6.528 0 .57.005.743-.208.734-.74-.025-1.58-.009-3.16-.009-4.74s-.018-3.16.01-4.74c.01-.555-.15-.787-.762-.78M13.21 40c-2.15.016-4.3.015-6.45.001-.538-.004-.764.19-.76.745.017 2.517.016 5.034.001 7.55-.003.523.208.705.722.7A353.8 353.8 0 0 1 13.24 49c.607.007.77-.245.757-.801-.027-1.225-.008-2.45-.008-3.676 0-1.247-.022-2.495.01-3.742.014-.589-.223-.785-.79-.78M14.118 32.794c5.145-2.34 10.287-4.685 15.43-7.029 1.973-.9 3.947-1.799 5.922-2.695.174-.079.386-.258.545-.134.22.172-.005.4-.072.585-.36.996-.728 1.99-1.122 2.973-.179.446-.056.656.399.813.436.15.63.05.782-.37a236.432 236.432 0 0 1 1.911-5.102c.197-.506.063-.728-.446-.902-1.7-.584-3.39-1.2-5.076-1.82-.42-.154-.712-.232-.908.32-.188.53.043.7.483.833.377.115.745.261 1.115.396l2.463.9c-.205.288-.455.332-.667.428-7.096 3.234-14.193 6.466-21.294 9.691-.435.198-.765.334-.472.936.3.617.645.342 1.007.177" mask="url(#c)"/>
        </g>
    </g>
</svg>
