<svg xmlns="http://www.w3.org/2000/svg" width="160" height="100" viewBox="0 0 160 100">
    <defs>
        <linearGradient id="a" x1=".55%" x2="97.802%" y1=".55%" y2="97.802%">
            <stop offset="0%" stop-color="#5D9CEC"/>
            <stop offset="100%" stop-color="#0E65D7"/>
        </linearGradient>
    </defs>
    <g fill="none" fill-rule="evenodd">
        <rect width="160" height="100" fill="url(#a)" rx="3"/>
        <path d="M48 18h64v64H48z"/>
        <path fill="#FFF" d="M58.17 49.93h.004v25.602c0 1.603.785 2.368 2.43 2.368 13.2.003 26.401.004 39.603.005 1.886 0 2.624-.723 2.624-2.567v-21.67c0-9.72.002-19.44-.003-29.16 0-1.698-.757-2.461-2.4-2.461-13.266-.002-26.53-.002-39.796 0-1.683 0-2.46.759-2.46 2.406-.002 8.491-.001 16.984-.001 25.477M59.01 18h42.98c.08.027.158.058.24.079 3.055.838 4.767 3.026 4.767 6.123.002 17.254.003 34.507 0 51.762-.002 3.374-2.698 6.03-6.123 6.032-13.583.005-27.165.005-40.747 0-3.438-.001-6.118-2.647-6.124-6.029-.006-3.704-.003-7.41-.003-11.113 0-13.634.003-27.266 0-40.899 0-1.247.354-2.376 1.073-3.4.963-1.372 2.32-2.157 3.937-2.555"/>
        <path fill="#FFF" d="M79.935 28.001c4.587 0 9.174-.003 13.762.001 1.565.002 2.306.76 2.302 2.329-.003 1.193.007 2.387-.005 3.58-.012 1.285-.807 2.084-2.104 2.085-9.258.005-18.516.005-27.773 0-1.286-.001-2.102-.816-2.11-2.08a315.705 315.705 0 0 1-.002-3.827c.007-1.267.826-2.084 2.105-2.086 4.608-.005 9.217-.002 13.825-.002M91.992 54.004c.677 0 1.354-.01 2.032.003 1.11.02 1.94.833 1.958 1.95.021 1.355.025 2.71.003 4.066-.016 1.116-.84 1.944-1.956 1.961-1.374.022-2.75.023-4.124-.006-1.076-.022-1.883-.865-1.894-1.95-.014-1.354-.014-2.709-.001-4.064.01-1.105.847-1.94 1.95-1.958.677-.012 1.355-.002 2.032-.002M80.06 66.004c.636 0 1.272-.007 1.908.002 1.161.014 1.996.81 2.014 1.957.021 1.356.025 2.71.003 4.066-.018 1.116-.844 1.94-1.961 1.957-1.355.021-2.709.017-4.063-.004-1.117-.017-1.939-.848-1.95-1.958-.014-1.355-.015-2.71-.002-4.065.012-1.104.852-1.936 1.957-1.953.697-.012 1.396-.002 2.093-.002M92 66.01c.698 0 1.396-.016 2.093.004a1.931 1.931 0 0 1 1.89 1.891c.023 1.395.023 2.791.001 4.187a1.926 1.926 0 0 1-1.89 1.892c-1.394.022-2.79.021-4.184-.002a1.92 1.92 0 0 1-1.89-1.888 127.72 127.72 0 0 1-.006-4.125c.017-1.119.838-1.93 1.956-1.96.676-.018 1.354-.003 2.03-.003v.004zM68.037 42.006c.677 0 1.354-.016 2.03.004 1.082.034 1.9.845 1.917 1.931.022 1.375.022 2.75-.005 4.125-.02 1.093-.828 1.896-1.925 1.915-1.373.023-2.748.026-4.121.003-1.08-.018-1.898-.845-1.916-1.931a119.85 119.85 0 0 1 .001-4.124c.02-1.087.838-1.887 1.927-1.919.697-.02 1.395-.004 2.092-.004M80 49.994c-.677 0-1.354.016-2.03-.004-1.126-.033-1.935-.83-1.953-1.955-.023-1.374-.023-2.75.003-4.124a1.906 1.906 0 0 1 1.887-1.89c1.394-.027 2.789-.029 4.182 0a1.899 1.899 0 0 1 1.89 1.887c.03 1.394.027 2.79 0 4.186-.02 1.046-.843 1.857-1.889 1.893-.695.024-1.393.005-2.09.005v.002zM95.994 46.002c0 .677.015 1.354-.003 2.03-.032 1.12-.838 1.934-1.962 1.952-1.354.022-2.71.021-4.063 0-1.121-.018-1.94-.84-1.954-1.959-.017-1.353-.016-2.707.005-4.06.017-1.132.82-1.931 1.955-1.948 1.354-.02 2.71-.023 4.064-.003 1.116.015 1.926.837 1.955 1.958.018.676.003 1.353.003 2.03M64.008 57.937c-.001-.656-.014-1.313.002-1.968.028-1.12.835-1.937 1.956-1.953 1.354-.02 2.709-.022 4.063 0 1.125.02 1.935.827 1.954 1.952.022 1.374.024 2.748-.003 4.121a1.915 1.915 0 0 1-1.891 1.89c-1.395.027-2.79.03-4.185 0-1.057-.023-1.853-.834-1.891-1.89-.026-.716-.005-1.435-.005-2.152M83.994 58.004c0 .677.015 1.354-.003 2.03-.032 1.12-.84 1.933-1.964 1.95a130.4 130.4 0 0 1-4.064 0c-1.12-.018-1.936-.84-1.95-1.961-.018-1.353-.017-2.707.004-4.062.017-1.13.821-1.928 1.957-1.945 1.355-.02 2.71-.022 4.064-.003 1.115.016 1.925.84 1.953 1.96.018.677.003 1.354.003 2.031M71.994 70c0 .677.015 1.354-.003 2.03-.031 1.122-.837 1.936-1.96 1.954-1.354.022-2.71.021-4.063 0-1.121-.018-1.94-.839-1.955-1.958a139.73 139.73 0 0 1 .004-4.06c.017-1.133.82-1.932 1.954-1.95 1.354-.02 2.71-.021 4.064-.003 1.117.016 1.927.836 1.956 1.957.018.676.003 1.353.003 2.03"/>
    </g>
</svg>
