<svg xmlns="http://www.w3.org/2000/svg" width="160" height="100" viewBox="0 0 160 100">
    <defs>
        <linearGradient id="a" x1=".55%" x2="97.3%" y1=".55%" y2="97.3%">
            <stop offset="0%" stop-color="#EC87C0"/>
            <stop offset="100%" stop-color="#BF4C90"/>
        </linearGradient>
    </defs>
    <g fill="none" fill-rule="evenodd">
        <rect width="160" height="100" fill="url(#a)" rx="3"/>
        <path d="M48 18h64v64H48z"/>
        <path fill="#FFF" d="M66.573 58.297c6.982.052 13.384-5.639 13.33-13.424-.053-7.696-6.421-13.38-13.575-13.254-6.982.122-13.152 5.724-13.136 13.366.014 7.739 6.363 13.366 13.38 13.312m-18.57-13.386c-.078-9.916 7.996-18.535 18.597-18.51 10.505.023 18.719 8.627 18.517 18.935-.19 9.705-7.963 18.076-18.358 18.183-10.78.11-18.88-8.618-18.757-18.608"/>
        <path fill="#FFF" d="M101.76 74.841c-.073 2.214-1.092 3.87-3.036 4.828-1.898.935-4.074.506-5.567-1.047C88 73.258 82.863 67.872 77.708 62.507c-.383-.4-.358-.624.092-.918 2.574-1.686 4.624-3.908 6.123-6.668.324-.597.546-.344.854-.02 4.609 4.82 9.221 9.636 13.832 14.454.596.622 1.198 1.237 1.779 1.874.905.992 1.332 2.192 1.372 3.612M108.812 23.772c-3.172 0-6.344.007-9.516-.003-2.952-.01-5.904-.045-8.855-.06-2.006-.009-4.01.013-6.016-.011-.505-.007-.75.174-.9.664-.552 1.804-1.152 3.592-1.705 5.396-.171.561-.33.635-.77.207a16.128 16.128 0 0 0-1.836-1.543c-.475-.342-.6-.674-.407-1.246.611-1.807 1.17-3.633 1.751-5.451.422-1.323.942-1.712 2.334-1.717C85.144 20 87.396 20 89.648 20c6.69 0 13.38.005 20.07.005.445 0 .88.02 1.288.24.705.378 1.079 1.09.978 1.898-.095.768-.686 1.377-1.457 1.553-.575.131-1.143-.01-1.715.076M72.587 46.685l2.828-8.584c.198-.602.388-1.207.583-1.81.124-.38.314-.446.6-.13.827.92 1.479 1.956 2.048 3.045.137.261.056.51-.026.76-1.45 4.398-2.897 8.798-4.352 13.195-.306.92-.94 1.405-1.777 1.399-.88-.006-1.46-.438-1.77-1.394-1.433-4.404-2.866-8.809-4.26-13.224-.213-.67-.502-.95-1.243-.923-1.542.057-3.09.012-4.635.018-.356.002-.705-.026-1.043-.139-.816-.272-1.327-.946-1.299-1.71.03-.837.614-1.537 1.467-1.718.321-.067.656-.095.985-.097a556.58 556.58 0 0 1 6.026-.007c1.71.008 2.172.336 2.691 1.929.936 2.865 1.853 5.737 2.778 8.606.086.266.178.53.267.797.044-.005.088-.01.132-.013"/>
    </g>
</svg>
