<?xml version="1.0" encoding="UTF-8"?>
<svg width="160px" height="100px" viewBox="0 0 160 100" version="1.1" xmlns="http://www.w3.org/2000/svg" xmlns:xlink="http://www.w3.org/1999/xlink">
    <!-- Generator: sketchtool 48.1 (47250) - http://www.bohemiancoding.com/sketch -->
    <title>C61755FC-B03B-45A1-96C3-C9ED516396CE</title>
    <desc>Created with sketchtool.</desc>
    <defs>
        <linearGradient x1="0.550063776%" y1="0.550063776%" x2="97.300486%" y2="97.300486%" id="linearGradient-1">
            <stop stop-color="#48CFAD" offset="0%"></stop>
            <stop stop-color="#19A784" offset="100%"></stop>
        </linearGradient>
    </defs>
    <g id="Accueil" stroke="none" stroke-width="1" fill="none" fill-rule="evenodd" transform="translate(-617.000000, -495.000000)">
        <g id="Row-1" transform="translate(617.000000, 325.000000)">
            <g id="1-copy" transform="translate(0.000000, 170.000000)">
                <g id="Card">
                    <rect fill="url(#linearGradient-1)" x="0" y="0" width="160" height="100" rx="3"></rect>
                    <g id="cervo" transform="translate(50.000000, 20.000000)" fill="#FFFFFF" stroke-width="1">
                        <g>
                            <path d="M21.4285714,27 C21.4285714,27.551 21.9085714,28 22.5,28 C23.0914286,28 23.5714286,27.551 23.5714286,27 C23.5714286,26.449 23.0914286,26 22.5,26 C21.9085714,26 21.4285714,26.449 21.4285714,27 Z M23.5714286,45 C23.5714286,44.449 23.0914286,44 22.5,44 C21.9085714,44 21.4285714,44.449 21.4285714,45 C21.4285714,45.551 21.9085714,46 22.5,46 C23.0914286,46 23.5714286,45.551 23.5714286,45 Z M15,27 C15,26.449 14.52,26 13.9285714,26 C13.3371429,26 12.8571429,26.449 12.8571429,27 C12.8571429,27.551 13.3371429,28 13.9285714,28 C14.52,28 15,27.551 15,27 Z M15,39 C15,38.449 14.52,38 13.9285714,38 C13.3371429,38 12.8571429,38.449 12.8571429,39 C12.8571429,39.551 13.3371429,40 13.9285714,40 C14.52,40 15,39.551 15,39 Z M21.4285714,17 C21.4285714,17.551 21.9085714,18 22.5,18 C23.0914286,18 23.5714286,17.551 23.5714286,17 C23.5714286,16.449 23.0914286,16 22.5,16 C21.9085714,16 21.4285714,16.449 21.4285714,17 Z M15,18 L15,24.184 C15.9085714,24.486 16.6221429,25.153 16.9446429,26 L19.4839286,26 C19.9275,24.838 21.105,24 22.5,24 C24.2721429,24 25.7142857,25.346 25.7142857,27 C25.7142857,28.302 24.8153571,29.401 23.5714286,29.816 L23.5714286,42.184 C24.8153571,42.599 25.7142857,43.698 25.7142857,45 C25.7142857,46.302 24.8153571,47.401 23.5714286,47.816 L23.5714286,51 C23.5714286,51.552 23.0925,52 22.5,52 C21.9075,52 21.4285714,51.552 21.4285714,51 L21.4285714,47.815 C20.3346429,47.452 19.5192857,46.558 19.3360714,45.46 L15.3139286,41.707 C15.3107143,41.705 15.3107143,41.701 15.3075,41.698 C14.8885714,41.886 14.4246429,42 13.9285714,42 C12.1564286,42 10.7142857,40.654 10.7142857,39 C10.7142857,37.346 12.1564286,36 13.9285714,36 C15.7007143,36 17.1428571,37.346 17.1428571,39 C17.1428571,39.462 17.0207143,39.896 16.8192857,40.287 C16.8225,40.29 16.8257143,40.291 16.8289286,40.293 L19.9435714,43.201 C20.3196429,42.737 20.8317857,42.383 21.4285714,42.184 L21.4285714,29.815 C20.52,29.514 19.8064286,28.847 19.4839286,28 L16.9446429,28 C16.5010714,29.162 15.3235714,30 13.9285714,30 C12.1564286,30 10.7142857,28.654 10.7142857,27 C10.7142857,25.698 11.6132143,24.599 12.8571429,24.184 L12.8571429,17 C12.8571429,16.448 13.3360714,16 13.9285714,16 L19.4839286,16 C19.8064286,15.153 20.52,14.486 21.4285714,14.184 L21.4285714,11 C21.4285714,10.448 21.9075,10 22.5,10 C23.0925,10 23.5714286,10.448 23.5714286,11 L23.5714286,14.184 C24.8153571,14.599 25.7142857,15.698 25.7142857,17 C25.7142857,18.654 24.2721429,20 22.5,20 C21.105,20 19.9275,19.162 19.4839286,18 L15,18 Z M57.4639286,37.245 C59.0592857,35.936 60,34.042 60,32 C60,29.86 58.9810714,27.894 57.2303571,26.574 C57.6428571,25.771 57.8571429,24.896 57.8571429,24 C57.8571429,21.936 56.6967857,20.035 54.8657143,18.95 C55.4185714,18.051 55.7142857,17.037 55.7142857,16 C55.7142857,13.42 53.9582143,11.177 51.4167857,10.349 C51.4242857,10.232 51.4285714,10.116 51.4285714,10 C51.4285714,6.691 48.5453571,4 45,4 C44.1353571,4 43.2932143,4.164 42.5067857,4.48 C41.5853571,1.876 38.9357143,0 35.8928571,0 C31.3842857,0 29.3796429,3.796 28.95,5.804 C28.9425,5.837 28.9521429,5.869 28.95,5.903 C28.9467857,5.937 28.9285714,5.965 28.9285714,6 L28.9285714,52.94 C28.6864286,55.779 26.1032143,58 23.0357143,58 C19.9789286,58 17.4032143,55.771 17.1707143,52.924 C17.1278571,52.403 16.6307143,52 16.0714286,52 C15.7371429,52 15.4221429,52.146 15.2185714,52.394 C14.3871429,53.415 13.1357143,54 11.7857143,54 C9.42214286,54 7.5,52.206 7.5,50 C7.5,49.092 7.83857143,48.224 8.48142857,47.489 C8.77071429,47.158 8.80285714,46.691 8.55964286,46.328 C8.3175,45.965 7.85892857,45.785 7.40678571,45.884 C7.04785714,45.962 6.7275,46 6.42857143,46 C4.065,46 2.14285714,44.206 2.14285714,42 C2.14285714,40.351 3.26464286,38.851 4.93285714,38.267 C5.33035714,38.128 5.6025,37.784 5.62714286,37.39 C5.65178571,36.995 5.42464286,36.623 5.04964286,36.442 C3.25607143,35.579 2.14285714,33.876 2.14285714,32 C2.14285714,30.236 3.11464286,28.636 4.74321429,27.72 C4.99714286,27.577 5.17607143,27.342 5.23821429,27.071 C5.29928571,26.799 5.23714286,26.517 5.06678571,26.29 C4.55571429,25.609 4.28571429,24.818 4.28571429,24 C4.28571429,22.339 5.41928571,20.836 7.10464286,20.259 C7.43785714,20.145 7.68964286,19.884 7.77642857,19.563 C7.86214286,19.241 7.77107143,18.9 7.53428571,18.653 C6.82071429,17.91 6.42857143,16.968 6.42857143,16 C6.42857143,14.062 7.91678571,12.411 9.96535714,12.073 C10.2525,12.025 10.5085714,11.87 10.6703571,11.643 C10.8321429,11.416 10.8878571,11.137 10.8257143,10.871 C10.7507143,10.559 10.7142857,10.274 10.7142857,10 C10.7142857,7.794 12.6364286,6 15,6 C15.9278571,6 16.8225,6.289 17.5885714,6.836 C17.9003571,7.058 18.3171429,7.104 18.6739286,6.956 C19.0328571,6.807 19.275,6.488 19.3082143,6.124 C19.5117857,3.812 21.6203571,2 24.1071429,2 C25.3007143,2 26.2875,2.358 27.1232143,3.094 C27.555,3.473 28.2332143,3.454 28.6382143,3.052 C29.0442857,2.65 29.025,2.018 28.5942857,1.639 C27.3589286,0.551 25.8492857,0 24.1071429,0 C21.0642857,0 18.4146429,1.876 17.4932143,4.48 C16.7067857,4.164 15.8646429,4 15,4 C11.4546429,4 8.57142857,6.691 8.57142857,10 C8.57142857,10.116 8.57571429,10.232 8.58321429,10.349 C6.04178571,11.177 4.28571429,13.42 4.28571429,16 C4.28571429,17.037 4.58142857,18.051 5.13428571,18.95 C3.30321429,20.035 2.14285714,21.936 2.14285714,24 C2.14285714,24.896 2.35714286,25.771 2.76964286,26.574 C1.01892857,27.894 0,29.86 0,32 C0,34.042 0.940714286,35.936 2.53607143,37.245 C0.970714286,38.362 0,40.116 0,42 C0,45.093 2.52107143,47.647 5.74607143,47.966 C5.48892857,48.614 5.35714286,49.298 5.35714286,50 C5.35714286,53.309 8.24035714,56 11.7857143,56 C13.1164286,56 14.3828571,55.623 15.4457143,54.932 C16.5385714,57.886 19.5589286,60 23.0357143,60 C27.2228571,60 30.7510714,56.958 31.0682143,53.076 C31.0692857,53.063 31.0628571,53.051 31.0628571,53.038 C31.0639286,53.024 31.0714286,53.014 31.0714286,53 L31.0714286,6.11 C31.23,5.496 32.2875,2 35.8928571,2 C38.3796429,2 40.4882143,3.812 40.6917857,6.124 C40.725,6.488 40.9671429,6.807 41.3260714,6.956 C41.6828571,7.104 42.0996429,7.058 42.4114286,6.836 C43.1775,6.289 44.0721429,6 45,6 C47.3635714,6 49.2857143,7.794 49.2857143,10 C49.2857143,10.274 49.2492857,10.559 49.1742857,10.871 C49.1121429,11.137 49.1678571,11.416 49.3296429,11.643 C49.4914286,11.87 49.7475,12.025 50.0346429,12.073 C52.0832143,12.411 53.5714286,14.062 53.5714286,16 C53.5714286,16.968 53.1792857,17.91 52.4657143,18.653 C52.2289286,18.9 52.1378571,19.241 52.2235714,19.563 C52.3103571,19.884 52.5621429,20.145 52.8953571,20.259 C54.5807143,20.836 55.7142857,22.339 55.7142857,24 C55.7142857,24.818 55.4442857,25.609 54.9332143,26.29 C54.7628571,26.517 54.7007143,26.799 54.7617857,27.071 C54.8239286,27.342 55.0028571,27.577 55.2567857,27.72 C56.8853571,28.636 57.8571429,30.236 57.8571429,32 C57.8571429,33.876 56.7439286,35.579 54.9503571,36.442 C54.5753571,36.623 54.3482143,36.995 54.3728571,37.39 C54.3975,37.784 54.6696429,38.128 55.0671429,38.267 C56.7353571,38.851 57.8571429,40.351 57.8571429,42 C57.8571429,44.206 55.935,46 53.5714286,46 C53.2725,46 52.9521429,45.962 52.5932143,45.884 C52.1432143,45.785 51.6835714,45.965 51.4403571,46.328 C51.1971429,46.691 51.2292857,47.158 51.5185714,47.489 C52.1614286,48.224 52.5,49.092 52.5,50 C52.5,52.206 50.5778571,54 48.2142857,54 C46.86,54 45.6107143,53.408 44.7878571,52.375 C44.5114286,52.03 44.0303571,51.889 43.5921429,52.023 C43.4335714,52.072 43.2942857,52.153 43.1817857,52.256 C42.9825,52.422 42.8507143,52.658 42.8292857,52.924 C42.5967857,55.771 40.0210714,58 36.9642857,58 C35.6175,58 34.3467857,57.587 33.2892857,56.806 C32.8232143,56.463 32.1514286,56.537 31.7839286,56.969 C31.4164286,57.402 31.4957143,58.031 31.9585714,58.374 C33.3782143,59.422 35.1567857,60 36.9642857,60 C40.4432143,60 43.4657143,57.882 44.5564286,54.925 C45.6160714,55.621 46.8803571,56 48.2142857,56 C51.7596429,56 54.6428571,53.309 54.6428571,50 C54.6428571,49.298 54.5110714,48.614 54.2539286,47.966 C57.4789286,47.647 60,45.093 60,42 C60,40.116 59.0292857,38.362 57.4639286,37.245 Z M38.5714286,45 C38.5714286,45.552 39.0503571,46 39.6428571,46 C41.205,46 42.8571429,47.542 42.8571429,49 C42.8571429,49.552 43.3360714,50 43.9285714,50 C44.5210714,50 45,49.552 45,49 C45,46.43 42.3964286,44 39.6428571,44 C39.0503571,44 38.5714286,44.448 38.5714286,45 Z M48.2142857,18 C46.6521429,18 45,16.458 45,15 C45,14.448 44.5210714,14 43.9285714,14 C43.3360714,14 42.8571429,14.448 42.8571429,15 C42.8571429,17.57 45.4607143,20 48.2142857,20 C48.8067857,20 49.2857143,19.552 49.2857143,19 C49.2857143,18.448 48.8067857,18 48.2142857,18 Z M35.3571429,40 C35.9496429,40 36.4285714,39.552 36.4285714,39 C36.4285714,37.542 38.0807143,36 39.6428571,36 C40.2353571,36 40.7142857,35.552 40.7142857,35 C40.7142857,34.448 40.2353571,34 39.6428571,34 C36.8892857,34 34.2857143,36.43 34.2857143,39 C34.2857143,39.552 34.7646429,40 35.3571429,40 Z M39.6428571,28 C40.2353571,28 40.7142857,27.552 40.7142857,27 C40.7142857,26.448 40.2353571,26 39.6428571,26 C38.0807143,26 36.4285714,24.458 36.4285714,23 C36.4285714,22.448 35.9496429,22 35.3571429,22 C34.7646429,22 34.2857143,22.448 34.2857143,23 C34.2857143,25.57 36.8892857,28 39.6428571,28 Z M50.3571429,24 C49.7646429,24 49.2857143,24.448 49.2857143,25 C49.2857143,26.458 47.6335714,28 46.0714286,28 C45.4789286,28 45,28.448 45,29 C45,29.552 45.4789286,30 46.0714286,30 C48.825,30 51.4285714,27.57 51.4285714,25 C51.4285714,24.448 50.9496429,24 50.3571429,24 Z M46.0714286,36 C45.4789286,36 45,36.448 45,37 C45,37.552 45.4789286,38 46.0714286,38 C47.6335714,38 49.2857143,39.542 49.2857143,41 C49.2857143,41.552 49.7646429,42 50.3571429,42 C50.9496429,42 51.4285714,41.552 51.4285714,41 C51.4285714,38.43 48.825,36 46.0714286,36 Z M34.2857143,14 C34.2857143,11.43 36.8892857,9 39.6428571,9 C40.2353571,9 40.7142857,9.448 40.7142857,10 C40.7142857,10.552 40.2353571,11 39.6428571,11 C38.0807143,11 36.4285714,12.542 36.4285714,14 C36.4285714,14.552 35.9496429,15 35.3571429,15 C34.7646429,15 34.2857143,14.552 34.2857143,14 Z" fill-rule="nonzero"></path>
                        </g>
                    </g>
                </g>
            </g>
        </g>
    </g>
</svg>