<svg xmlns="http://www.w3.org/2000/svg" xmlns:xlink="http://www.w3.org/1999/xlink" width="50" height="58" viewBox="0 0 50 58">
    <defs>
        <style>
            .cls-1{fill:#fff;stroke:#707070}.cls-2{clip-path:url(#clip-path)}.cls-3{fill:url(#linear-gradient)}.cls-4{fill:#e1e1e1}.cls-5{fill:#2f2f2f}.cls-6{fill:#9e9e9e}.cls-7{fill:url(#linear-gradient-2)}.cls-8{fill:url(#linear-gradient-3)}.cls-9{opacity:.2}.cls-10{fill:#424242}
        </style>
        <clipPath id="clip-path">
            <path id="Rectangle_3240" d="M0 0h50v58H0z" class="cls-1" data-name="Rectangle 3240" transform="translate(1217 342)"/>
        </clipPath>
        <linearGradient id="linear-gradient" x1=".5" x2=".5" y1=".316" y2=".998" gradientUnits="objectBoundingBox">
            <stop offset="0" stop-color="#fff"/>
            <stop offset="1" stop-color="#c8c9ca"/>
        </linearGradient>
        <linearGradient id="linear-gradient-2" x1=".5" x2=".5" y1="-.1" y2=".925" gradientUnits="objectBoundingBox">
            <stop offset=".005" stop-color="#757575"/>
            <stop offset="1" stop-color="#424242"/>
        </linearGradient>
        <linearGradient id="linear-gradient-3" x1=".5" x2=".5" y1="-.1" y2=".925" xlink:href="#linear-gradient-2"/>
    </defs>
    <g id="Groupe_de_masques_15" class="cls-2" data-name="Groupe de masques 15" transform="translate(-1217 -342)">
        <g id="_62925spiralcalendar_109208" data-name="62925spiralcalendar_109208" transform="translate(1212.486 341.488)">
            <g id="Groupe_2057" data-name="Groupe 2057">
                <path id="Tracé_509" d="M49.9 57.18H9.126a4.613 4.613 0 0 1-4.611-4.611V17.292a4.81 4.81 0 0 1 4.81-4.81H49.7a4.81 4.81 0 0 1 4.81 4.81v35.276a4.61 4.61 0 0 1-4.61 4.612z" class="cls-3" data-name="Tracé 509"/>
                <g id="Groupe_2056" data-name="Groupe 2056">
                    <path id="Tracé_510" d="M54.51 26.722h-50v-16.5A3.688 3.688 0 0 1 8.2 6.534h42.625a3.688 3.688 0 0 1 3.689 3.689v16.5z" class="cls-4" data-name="Tracé 510"/>
                    <g id="Groupe_2053" data-name="Groupe 2053">
                        <path id="Tracé_515" d="M16.31 51.042h-3.44V37.757l-4.109 1.268v-2.776l7.18-2.573h.369z" class="cls-5" data-name="Tracé 515"/>
                        <path id="Tracé_516" d="M33.731 35.622l-6.7 15.42h-3.638l6.719-14.562h-8.623V33.7h12.242z" class="cls-5" data-name="Tracé 516"/>
                    </g>
                    <g id="Groupe_2054" data-name="Groupe 2054">
                        <path id="Tracé_517" d="M38.048 40.63h-1.176a.494.494 0 0 1-.493-.493v-1.112a.494.494 0 0 1 .493-.493h1.176a.494.494 0 0 1 .493.493v1.111a.494.494 0 0 1-.493.494z" class="cls-6" data-name="Tracé 517"/>
                        <path id="Tracé_518" d="M43.941 40.63h-1.176a.494.494 0 0 1-.493-.493v-1.112a.494.494 0 0 1 .493-.493h1.176a.494.494 0 0 1 .493.493v1.111a.494.494 0 0 1-.493.494z" class="cls-6" data-name="Tracé 518"/>
                        <path id="Tracé_519" d="M49.834 40.63h-1.176a.494.494 0 0 1-.493-.493v-1.112a.494.494 0 0 1 .493-.493h1.176a.494.494 0 0 1 .493.493v1.111a.494.494 0 0 1-.493.494z" class="cls-6" data-name="Tracé 519"/>
                        <path id="Tracé_520" d="M38.048 45.836h-1.176a.494.494 0 0 1-.493-.493v-1.112a.494.494 0 0 1 .493-.493h1.176a.494.494 0 0 1 .493.493v1.111a.494.494 0 0 1-.493.494z" class="cls-6" data-name="Tracé 520"/>
                        <path id="Tracé_521" d="M43.941 45.836h-1.176a.494.494 0 0 1-.493-.493v-1.112a.494.494 0 0 1 .493-.493h1.176a.494.494 0 0 1 .493.493v1.111a.494.494 0 0 1-.493.494z" class="cls-6" data-name="Tracé 521"/>
                        <path id="Tracé_522" d="M49.834 45.836h-1.176a.494.494 0 0 1-.493-.493v-1.112a.494.494 0 0 1 .493-.493h1.176a.494.494 0 0 1 .493.493v1.111a.494.494 0 0 1-.493.494z" class="cls-6" data-name="Tracé 522"/>
                        <path id="Tracé_523" d="M38.048 51.042h-1.176a.494.494 0 0 1-.493-.493v-1.112a.494.494 0 0 1 .493-.493h1.176a.494.494 0 0 1 .493.493v1.111a.494.494 0 0 1-.493.494z" class="cls-6" data-name="Tracé 523"/>
                        <path id="Tracé_524" d="M43.941 51.042h-1.176a.494.494 0 0 1-.493-.493v-1.112a.494.494 0 0 1 .493-.493h1.176a.494.494 0 0 1 .493.493v1.111a.494.494 0 0 1-.493.494z" class="cls-6" data-name="Tracé 524"/>
                        <path id="Tracé_525" d="M49.834 51.042h-1.176a.494.494 0 0 1-.493-.493v-1.112a.494.494 0 0 1 .493-.493h1.176a.494.494 0 0 1 .493.493v1.111a.494.494 0 0 1-.493.494z" class="cls-6" data-name="Tracé 525"/>
                    </g>
                    <path id="Tracé_526" d="M14.719 9.047c-.641 0-1.36-.968-1.36-2.269s.719-2.269 1.36-2.269c.609 0 1.282.881 1.351 2.084h2.67c-.078-2.679-1.812-4.75-4.021-4.75-2.26 0-4.026 2.167-4.026 4.934s1.771 4.934 4.026 4.934a1.333 1.333 0 0 0 0-2.665z" class="cls-7" data-name="Tracé 526"/>
                    <path id="Tracé_527" d="M30.07 9.047c-.641 0-1.36-.968-1.36-2.269s.719-2.269 1.36-2.269c.609 0 1.282.881 1.351 2.084h2.67c-.078-2.679-1.812-4.75-4.021-4.75-2.26 0-4.026 2.167-4.026 4.934s1.771 4.934 4.026 4.934a1.333 1.333 0 0 0 0-2.665z" class="cls-8" data-name="Tracé 527"/>
                    <path id="Tracé_528" d="M45.813 9.047c-.641 0-1.36-.968-1.36-2.269s.719-2.269 1.36-2.269c.609 0 1.282.881 1.351 2.084h2.67c-.078-2.679-1.812-4.75-4.021-4.75-2.26 0-4.026 2.167-4.026 4.934s1.771 4.934 4.026 4.934a1.333 1.333 0 0 0 0-2.665z" class="cls-7" data-name="Tracé 528"/>
                    <g id="Groupe_2055" class="cls-9" data-name="Groupe 2055">
                        <path id="Tracé_529" d="M32.749 6.889a1.381 1.381 0 0 0 1.337 1.028H41.8a1.386 1.386 0 0 0 1.337-1.024 1.384 1.384 0 0 0 1.337 1.028h2.688a1.393 1.393 0 0 0 1.014-.443 1.336 1.336 0 0 0 .323-.586 1.381 1.381 0 0 0 1.337 1.028h.724a2.574 2.574 0 0 1 2.571 2.58v41.736a3.57 3.57 0 0 1-3.564 3.564H9.458a3.57 3.57 0 0 1-3.565-3.565V10.5a2.574 2.574 0 0 1 2.573-2.578H10.7A1.386 1.386 0 0 0 12.035 6.9a1.384 1.384 0 0 0 1.337 1.028h2.688a1.393 1.393 0 0 0 1.014-.443A1.336 1.336 0 0 0 17.4 6.9a1.381 1.381 0 0 0 1.337 1.028h7.318A1.386 1.386 0 0 0 27.391 6.9a1.384 1.384 0 0 0 1.337 1.028h2.688a1.393 1.393 0 0 0 1.014-.443 1.6 1.6 0 0 0 .318-.6m13.065-5.04c-2.19 0-3.915 2.043-4.016 4.69h-7.71c-.1-2.647-1.826-4.69-4.016-4.69s-3.915 2.043-4.016 4.69h-7.319c-.1-2.647-1.821-4.69-4.016-4.69S10.8 3.887 10.7 6.534H8.471a3.956 3.956 0 0 0-3.956 3.956v41.742a4.946 4.946 0 0 0 4.947 4.948h40.1a4.946 4.946 0 0 0 4.948-4.948V10.5a3.956 3.956 0 0 0-3.956-3.956h-.724c-.106-2.651-1.826-4.694-4.021-4.694zm-1.342 4.69c.083-1.171.742-2.024 1.346-2.024s1.259.853 1.342 2.024zm-15.747 0c.083-1.171.742-2.024 1.346-2.024s1.259.853 1.342 2.024zm-15.346 0c.083-1.171.742-2.024 1.346-2.024s1.259.853 1.342 2.024z" class="cls-10" data-name="Tracé 529"/>
                    </g>
                </g>
            </g>
        </g>
    </g>
</svg>
