<svg xmlns="http://www.w3.org/2000/svg" xmlns:xlink="http://www.w3.org/1999/xlink" width="129" height="25" viewBox="0 0 129 25">
    <defs>
        <path id="a" d="M4.395 3.182V.022H.075v3.16h4.32z"/>
    </defs>
    <g fill="none" fill-rule="evenodd">
        <path fill="#EB5F5F" d="M9.656 12.561a63002.587 63002.587 0 0 0 8.692-9.643A8.329 8.329 0 0 1 24.066.18a8.249 8.249 0 0 1 5.978 2.056l-4.349 4.825-4.348 4.824a8.33 8.33 0 0 1-5.72 2.735 8.23 8.23 0 0 1-5.971-2.06"/>
        <path fill="#40C4FF" d="M21.347 11.886l-4.83-4.293-4.825-4.288a8.253 8.253 0 0 0-5.976-2.058A8.324 8.324 0 0 0 0 3.982L4.825 8.27l4.83 4.291a8.24 8.24 0 0 0 5.971 2.06 8.329 8.329 0 0 0 5.72-2.735"/>
        <path fill="#C8DC50" d="M17.04 16.685l-4.347 4.823a8.329 8.329 0 0 1-5.718 2.737 8.249 8.249 0 0 1-5.978-2.057l4.348-4.824 4.349-4.824a8.33 8.33 0 0 1 5.72-2.735 8.23 8.23 0 0 1 5.97 2.06l-4.344 4.82z"/>
        <path fill="#FDBE42" d="M9.694 12.54l4.829 4.292 4.825 4.288a8.253 8.253 0 0 0 5.976 2.059 8.324 8.324 0 0 0 5.717-2.736l-4.825-4.288-4.831-4.29a8.24 8.24 0 0 0-5.97-2.06 8.33 8.33 0 0 0-5.721 2.734"/>
        <path fill="#FDBE42" d="M21.385 11.864l-2.768 3.071-2.772 3.075a2635.27 2635.27 0 0 0-3.073-2.733c-1.025-.91-2.052-1.826-3.078-2.737a4.79 4.79 0 0 1 .144-.156c.046-.051.096-.102.144-.15.053-.051.103-.102.154-.149l.154-.144c.05-.046.102-.09.156-.137l.159-.135c.053-.04.107-.087.161-.129.054-.042.11-.082.165-.124l.168-.118c.056-.04.113-.08.17-.116.056-.04.113-.075.17-.111.058-.038.117-.071.174-.107l.176-.1c.059-.034.118-.068.179-.099.06-.031.12-.06.182-.094.06-.03.119-.059.18-.086.061-.031.12-.056.184-.086.061-.027.123-.05.184-.077.063-.025.123-.05.187-.071.065-.027.126-.05.188-.073.064-.02.125-.044.191-.066.063-.021.126-.04.192-.058.062-.02.127-.038.19-.057.063-.017.13-.037.192-.05.068-.016.132-.033.198-.047a4.479 4.479 0 0 1 .389-.078c.066-.015.13-.023.197-.033l.198-.03c.065-.008.132-.018.199-.025.065-.004.132-.01.195-.017.067-.006.135-.008.2-.012.065-.005.132-.007.199-.007.065-.005.13-.005.198-.007.067-.003.135 0 .199.001.065 0 .132.003.201.003.064.002.129.008.196.01.068.006.133.011.2.013.066.01.132.014.198.022.067.008.131.013.196.023.069.01.133.02.2.028l.195.033c.067.012.134.024.197.04.067.012.13.027.196.041.065.014.129.03.194.047.064.016.128.036.194.054.065.018.127.035.191.055.064.02.13.042.194.061l.19.068c.062.021.124.047.189.07.059.026.123.05.186.075.061.028.124.053.185.081l.185.085c.063.03.121.06.183.092.057.032.119.063.179.097.061.031.12.065.18.098.06.034.12.067.177.104l.175.11.172.114c.056.04.113.078.168.121.059.04.114.082.167.123.057.041.11.086.165.13.055.044.11.087.164.132l.158.142"/>
        <path fill="#FFF" d="M35.842 4.854c.22 0 .409.017.568.05.16.033.3.097.42.19.119.095.226.222.32.383.095.16.192.373.292.638l3.11 7.964c.04.1.11.15.21.15h.18c.1 0 .169-.05.209-.15l3.11-7.964c.1-.265.197-.478.292-.638a1.35 1.35 0 0 1 .322-.382.994.994 0 0 1 .41-.19c.155-.034.342-.05.562-.05h1.6c.518 0 .867.13 1.047.39.18.26.269.704.269 1.335v9.524c0 .243-.115.365-.344.365h-1.525c-.22 0-.33-.122-.33-.365V7.443c0-.11-.04-.166-.12-.166h-.134c-.1 0-.164.044-.194.132l-3.021 7.434c-.12.298-.242.55-.366.754-.125.205-.26.374-.404.507-.145.132-.31.226-.494.282a2.267 2.267 0 0 1-.65.083h-.718c-.25 0-.466-.028-.65-.083a1.252 1.252 0 0 1-.494-.282 2.306 2.306 0 0 1-.404-.507 5.1 5.1 0 0 1-.366-.754l-3.021-7.434c-.03-.088-.095-.132-.194-.132h-.135c-.08 0-.12.055-.12.166v8.66c0 .244-.11.366-.329.366h-1.525c-.23 0-.344-.122-.344-.365V6.58c0-.63.09-1.076.27-1.336.179-.26.532-.39 1.061-.39h1.63zM58.319 14.644c.159 0 .271-.042.336-.125.065-.083.097-.23.097-.44v-1.46H53.28c-.31 0-.526.07-.65.208-.125.138-.188.34-.188.605v.349c0 .298.063.517.187.655.125.139.342.208.65.208h5.04zM57.33 7.36c.668 0 1.232.064 1.69.19.459.128.825.327 1.1.598.274.27.47.62.59 1.045.12.426.18.937.18 1.535v4.413c0 .266-.018.484-.053.656a.894.894 0 0 1-.18.406.66.66 0 0 1-.336.208c-.14.038-.319.058-.538.058h-7.118c-.44 0-.805-.047-1.1-.141a1.653 1.653 0 0 1-.71-.423 1.595 1.595 0 0 1-.381-.73 4.417 4.417 0 0 1-.112-1.062v-.797c0-.343.037-.65.112-.92.075-.272.202-.5.381-.69.18-.187.416-.328.71-.422.295-.094.66-.141 1.1-.141h6.086v-.315c0-.266-.025-.493-.074-.68a.968.968 0 0 0-.255-.457 1.096 1.096 0 0 0-.493-.257 3.248 3.248 0 0 0-.808-.083h-6.25c-.18 0-.27-.1-.27-.299V7.658c0-.199.09-.298.27-.298h6.46zM70.297 7.36c.668 0 1.231.064 1.69.19.458.128.825.327 1.1.598.273.27.47.62.59 1.045.12.426.18.937.18 1.535v5.376c0 .243-.11.365-.33.365h-1.465c-.22 0-.33-.122-.33-.365v-4.812c0-.343-.02-.633-.06-.871a1.174 1.174 0 0 0-.23-.564.958.958 0 0 0-.472-.299 2.74 2.74 0 0 0-.778-.091h-3.978c-.319 0-.583.03-.792.091-.21.061-.377.16-.501.299a1.185 1.185 0 0 0-.262.564c-.05.238-.075.528-.075.871v4.812c0 .243-.11.365-.329.365H62.79c-.23 0-.344-.122-.344-.365v-5.376c0-.598.06-1.109.18-1.535.119-.426.316-.774.59-1.045.274-.271.638-.47 1.092-.598.453-.126 1.02-.19 1.697-.19h4.292zM83.337 14.644c.16 0 .272-.042.337-.125.065-.083.097-.23.097-.44v-1.46h-5.473c-.31 0-.526.07-.65.208-.126.138-.188.34-.188.605v.349c0 .298.062.517.187.655.125.139.341.208.65.208h5.04zM82.35 7.36c.668 0 1.232.064 1.69.19.459.128.825.327 1.1.598.273.27.47.62.59 1.045.12.426.18.937.18 1.535v4.413c0 .266-.018.484-.053.656a.893.893 0 0 1-.18.406.66.66 0 0 1-.336.208c-.14.038-.32.058-.538.058h-7.118c-.44 0-.806-.047-1.1-.141a1.655 1.655 0 0 1-.71-.423 1.596 1.596 0 0 1-.381-.73 4.417 4.417 0 0 1-.113-1.062v-.797c0-.343.038-.65.113-.92.074-.272.202-.5.38-.69.18-.187.417-.328.711-.422.294-.094.66-.141 1.1-.141h6.086v-.315c0-.266-.025-.493-.075-.68a.967.967 0 0 0-.254-.457 1.096 1.096 0 0 0-.494-.257 3.247 3.247 0 0 0-.807-.083H75.89c-.18 0-.27-.1-.27-.299V7.658c0-.199.09-.298.27-.298h6.46zM89.513 12.47c0 .288.025.528.075.722.05.193.137.354.262.48.124.128.291.22.5.275.21.055.474.083.793.083h5.414v-3.103c0-.586-.112-1.001-.337-1.244-.224-.244-.66-.365-1.308-.365h-3.769c-.319 0-.583.027-.792.083-.21.055-.377.146-.501.273-.125.127-.212.29-.262.49-.05.199-.075.437-.075.713v1.593zm5.608-5.11c.678 0 1.244.064 1.698.19.453.128.82.324 1.099.59.279.265.476.61.59 1.036.115.427.173.938.173 1.535v6.04c0 .608-.058 1.125-.172 1.551a2.234 2.234 0 0 1-.591 1.045c-.28.271-.646.47-1.1.598-.453.127-1.019.19-1.697.19h-7.043c-.18 0-.27-.1-.27-.298v-1.394c0-.199.09-.299.27-.299h6.834c.329 0 .598-.03.808-.09.209-.062.376-.161.5-.3a1.19 1.19 0 0 0 .262-.564c.05-.238.075-.533.075-.887v-.432h-5.623c-.678 0-1.244-.063-1.697-.19-.454-.128-.818-.327-1.092-.598a2.314 2.314 0 0 1-.59-1.045c-.12-.426-.18-.943-.18-1.551v-1.743c0-.608.06-1.125.18-1.55.119-.427.316-.775.59-1.046.274-.271.638-.47 1.092-.597.453-.127 1.019-.191 1.697-.191h4.187zM102.33 11.126h6.056c.17 0 .254-.094.254-.282v-.697c0-.343-.065-.586-.194-.73-.13-.144-.37-.216-.718-.216h-3.754c-.648 0-1.084.114-1.308.34-.225.227-.337.606-.337 1.137v.448zm5.817-3.766c.508 0 .929.047 1.263.14.334.095.598.25.793.465.194.216.331.498.411.846.08.349.12.772.12 1.27v1.576c0 .354-.07.6-.21.738-.14.139-.354.208-.643.208h-7.552V13c0 .52.112.896.337 1.128.224.232.66.349 1.308.349h6.236c.18 0 .27.1.27.298v1.394c0 .2-.09.299-.27.299h-6.445c-.678 0-1.244-.061-1.698-.183-.453-.122-.817-.318-1.091-.589a2.314 2.314 0 0 1-.59-1.045c-.12-.426-.18-.938-.18-1.535v-2.39c0-.596.06-1.108.18-1.534.119-.426.315-.774.59-1.045.274-.271.638-.47 1.091-.597.454-.127 1.02-.191 1.698-.191h4.382zM120.035 7.36c.18 0 .27.1.27.298v1.394c0 .2-.09.299-.27.299h-3.978c-.319 0-.583.03-.792.091-.21.06-.377.16-.501.299a1.187 1.187 0 0 0-.262.564c-.05.238-.075.528-.075.87v4.929c0 .243-.11.365-.329.365h-1.465c-.23 0-.344-.122-.344-.365v-5.376c0-.598.06-1.109.18-1.535.119-.426.316-.774.59-1.045.274-.271.638-.47 1.092-.598.453-.126 1.019-.19 1.697-.19h4.187zM123.923 2.987c.063 0 .094.034.094.1v.442c0 .07-.031.104-.094.104h-1.277v2.415c0 .066-.03.1-.09.1h-.443c-.06 0-.09-.034-.09-.1V3.633h-1.277c-.063 0-.094-.034-.094-.104v-.442c0-.066.031-.1.094-.1h3.177z"/>
        <g transform="translate(124.305 2.965)">
            <mask id="b" fill="#fff">
                <use xlink:href="#a"/>
            </mask>
            <path fill="#FFF" d="M.88.023c.06 0 .111.004.155.013a.27.27 0 0 1 .113.052c.033.026.062.06.088.104.026.044.052.101.08.174l.846 2.166c.01.028.03.041.057.041h.048c.027 0 .047-.013.057-.04L3.171.365c.027-.073.053-.13.079-.174a.37.37 0 0 1 .088-.104.267.267 0 0 1 .111-.052.728.728 0 0 1 .153-.013h.435c.141 0 .236.035.285.106.049.07.073.192.073.363v2.591c0 .066-.031.1-.093.1h-.415c-.06 0-.09-.034-.09-.1V.727c0-.03-.01-.045-.032-.045h-.037c-.027 0-.045.012-.053.036L2.853 2.74c-.032.081-.065.15-.1.205a.63.63 0 0 1-.11.138.338.338 0 0 1-.134.077.615.615 0 0 1-.176.022h-.196a.617.617 0 0 1-.177-.022.337.337 0 0 1-.134-.077.635.635 0 0 1-.11-.138 1.395 1.395 0 0 1-.1-.205L.795.718C.786.694.769.682.742.682H.705C.683.682.672.697.672.727v2.356c0 .066-.03.1-.089.1H.168c-.062 0-.094-.034-.094-.1V.493C.074.32.1.198.148.128.196.058.293.023.437.023H.88z" mask="url(#b)"/>
        </g>
    </g>
</svg>
